<svg width="72" height="56" viewBox="0 0 72 56" fill="none" xmlns="http://www.w3.org/2000/svg">
<path d="M1.05197 56V55.15L4.36697 54.13C6.52031 53.3933 7.59697 51.9483 7.59697 49.795V8.655L0.711974 9.59V8.485C4.05531 7.805 7.25697 6.84166 10.317 5.595C13.4336 4.34833 16.352 2.90333 19.072 1.26L20.177 2.025L19.837 14.18V49.795C19.837 52.005 20.9136 53.4217 23.067 54.045L26.552 55.15V56H1.05197ZM35.9538 16.39L36.5488 4.32C38.2488 3.35667 40.3454 2.535 42.8388 1.855C45.3888 1.175 48.2504 0.834996 51.4238 0.834996C55.9571 0.834996 59.6121 1.48666 62.3888 2.79C65.1654 4.03666 67.2054 5.765 68.5088 7.975C69.8121 10.185 70.4638 12.6783 70.4638 15.455C70.4638 19.365 68.5654 23.19 64.7688 26.93C60.9721 30.6133 55.7871 34.6933 49.2138 39.17C47.9671 40.0767 46.4938 41.1817 44.7938 42.485C43.0938 43.7883 41.5071 45.0633 40.0338 46.31H71.9088V56H34.5088V48.86C36.5488 46.8767 38.5321 44.9217 40.4588 42.995C42.4421 41.0117 44.3121 39.1417 46.0688 37.385C50.1488 33.1917 53.1804 29.48 55.1638 26.25C57.2038 22.9633 58.2238 19.45 58.2238 15.71C58.2238 11.8 57.5154 8.655 56.0988 6.275C54.6821 3.83833 52.5571 2.62 49.7238 2.62C47.9671 2.62 46.3238 3.07333 44.7938 3.98C43.3204 4.83 42.0171 6.33167 40.8838 8.485L36.8038 16.39H35.9538Z" fill="#CDA274"/>
</svg>
