<svg width="85" height="57" viewBox="0 0 85 57" fill="none" xmlns="http://www.w3.org/2000/svg">
<path d="M0.363986 57V56.15L3.67899 55.13C5.83232 54.3933 6.90899 52.9483 6.90899 50.795V9.655L0.0239859 10.59V9.485C3.36732 8.805 6.56899 7.84166 9.62899 6.595C12.7457 5.34833 15.664 3.90333 18.384 2.26L19.489 3.025L19.149 15.18V50.795C19.149 53.005 20.2257 54.4217 22.379 55.045L25.864 56.15V57H0.363986ZM31.2708 57V56.15L33.0558 55.47C34.1891 55.0733 34.9258 54.535 35.2658 53.855C35.6058 53.175 35.7758 52.2967 35.7758 51.22V6.765C35.7758 5.63167 35.6058 4.725 35.2658 4.045C34.9258 3.365 34.1891 2.82666 33.0558 2.43L31.2708 1.75V0.899998H52.4358V1.75L50.5658 2.515C49.6025 2.855 48.9508 3.365 48.6108 4.045C48.2708 4.725 48.1008 5.66 48.1008 6.85V51.305C48.1008 52.4383 48.2708 53.3167 48.6108 53.94C49.0075 54.5633 49.7441 55.0733 50.8208 55.47L52.4358 56.15V57H31.2708ZM62.6358 57V56.15L63.7408 55.81C64.8741 55.47 65.4691 54.9033 65.5258 54.11C65.5825 53.3167 65.2425 52.41 64.5058 51.39L48.1858 28.185L69.6908 6.255C70.4841 5.46167 70.9091 4.69667 70.9658 3.96C71.0791 3.22333 70.5408 2.65666 69.3508 2.26L67.9058 1.75V0.899998H80.3158V1.75L78.1058 2.43C76.8591 2.82666 75.8675 3.30833 75.1308 3.875C74.3941 4.44167 73.5441 5.20666 72.5808 6.17L57.3658 21.725L77.3408 50.88C78.1908 52.1267 78.9841 53.1467 79.7208 53.94C80.5141 54.7333 81.6191 55.3567 83.0358 55.81L84.2258 56.15V57H62.6358Z" fill="#CDA274"/>
</svg>
