<svg width="101" height="57" viewBox="0 0 101 57" fill="none" xmlns="http://www.w3.org/2000/svg">
<path d="M22.3687 57V43.23H0.013732V38.385L24.9187 2.43H33.2487V36.94H41.3237V43.23H33.2487V57H22.3687ZM3.75373 36.94H22.3687V10.165L3.75373 36.94ZM47.281 57V56.15L49.066 55.47C50.1994 55.0733 50.936 54.535 51.276 53.855C51.616 53.175 51.786 52.2967 51.786 51.22V6.765C51.786 5.63167 51.616 4.725 51.276 4.045C50.936 3.365 50.1994 2.82666 49.066 2.43L47.281 1.75V0.899998H68.446V1.75L66.576 2.515C65.6127 2.855 64.961 3.365 64.621 4.045C64.281 4.725 64.111 5.66 64.111 6.85V51.305C64.111 52.4383 64.281 53.3167 64.621 53.94C65.0177 54.5633 65.7544 55.0733 66.831 55.47L68.446 56.15V57H47.281ZM78.646 57V56.15L79.751 55.81C80.8844 55.47 81.4794 54.9033 81.536 54.11C81.5927 53.3167 81.2527 52.41 80.516 51.39L64.196 28.185L85.701 6.255C86.4944 5.46167 86.9194 4.69667 86.976 3.96C87.0894 3.22333 86.551 2.65666 85.361 2.26L83.916 1.75V0.899998H96.326V1.75L94.116 2.43C92.8694 2.82666 91.8777 3.30833 91.141 3.875C90.4044 4.44167 89.5544 5.20666 88.591 6.17L73.376 21.725L93.351 50.88C94.201 52.1267 94.9944 53.1467 95.731 53.94C96.5244 54.7333 97.6294 55.3567 99.046 55.81L100.236 56.15V57H78.646Z" fill="#CDA274"/>
</svg>
