<svg width="98" height="59" viewBox="0 0 98 59" fill="none" xmlns="http://www.w3.org/2000/svg">
<path d="M16.4628 58.275C13.1761 58.275 10.2294 57.9633 7.62276 57.34C5.07276 56.7733 2.80609 55.81 0.822756 54.45L1.41776 43.74H2.26776L6.17776 50.71C7.31109 52.75 8.69942 54.2517 10.3428 55.215C11.9861 56.1217 13.7994 56.575 15.7828 56.575C22.2994 56.575 25.5578 51.6167 25.5578 41.7C25.5578 37.2233 24.6794 33.8233 22.9228 31.5C21.2228 29.1767 18.6728 28.015 15.2728 28.015C13.6861 28.015 12.0994 28.2417 10.5128 28.695C8.98276 29.0917 7.56609 29.63 6.26276 30.31L4.73276 29.375L6.60276 3.11H36.3528V12.8H8.30276L7.11276 27.505C8.41609 26.5417 10.1728 25.635 12.3828 24.785C14.5928 23.935 16.9161 23.51 19.3528 23.51C23.0361 23.51 26.2944 24.1617 29.1278 25.465C32.0178 26.7683 34.2561 28.695 35.8428 31.245C37.4861 33.7383 38.3078 36.8267 38.3078 40.51C38.3078 44.3067 37.3444 47.5367 35.4178 50.2C33.5478 52.8633 30.9694 54.875 27.6828 56.235C24.3961 57.595 20.6561 58.275 16.4628 58.275ZM44.532 57V56.15L46.317 55.47C47.4503 55.0733 48.187 54.535 48.527 53.855C48.867 53.175 49.037 52.2967 49.037 51.22V6.765C49.037 5.63167 48.867 4.725 48.527 4.045C48.187 3.365 47.4503 2.82666 46.317 2.43L44.532 1.75V0.899998H65.697V1.75L63.827 2.515C62.8637 2.855 62.212 3.365 61.872 4.045C61.532 4.725 61.362 5.66 61.362 6.85V51.305C61.362 52.4383 61.532 53.3167 61.872 53.94C62.2687 54.5633 63.0053 55.0733 64.082 55.47L65.697 56.15V57H44.532ZM75.897 57V56.15L77.002 55.81C78.1353 55.47 78.7303 54.9033 78.787 54.11C78.8437 53.3167 78.5037 52.41 77.767 51.39L61.447 28.185L82.952 6.255C83.7454 5.46167 84.1703 4.69667 84.227 3.96C84.3403 3.22333 83.802 2.65666 82.612 2.26L81.167 1.75V0.899998H93.577V1.75L91.367 2.43C90.1203 2.82666 89.1287 3.30833 88.392 3.875C87.6554 4.44167 86.8053 5.20666 85.842 6.17L70.627 21.725L90.602 50.88C91.452 52.1267 92.2454 53.1467 92.982 53.94C93.7753 54.7333 94.8803 55.3567 96.297 55.81L97.487 56.15V57H75.897Z" fill="#CDA274"/>
</svg>
